<?xml version="1.0" encoding="UTF-8" standalone="no"?>
<!DOCTYPE svg PUBLIC "-//W3C//DTD SVG 1.1//EN"
 "http://www.w3.org/Graphics/SVG/1.1/DTD/svg11.dtd">
<!-- Generated by graphviz version 2.49.1 (20210923.0004)
 -->
<!-- Title: G Pages: 1 -->
<svg width="791pt" height="187pt"
 viewBox="0.00 0.00 791.20 187.20" xmlns="http://www.w3.org/2000/svg" xmlns:xlink="http://www.w3.org/1999/xlink">
<g id="graph0" class="graph" transform="scale(1 1) rotate(0) translate(21.6 165.6)">
<title>G</title>
<polygon fill="#111111" stroke="transparent" points="-21.6,21.6 -21.6,-165.6 769.6,-165.6 769.6,21.6 -21.6,21.6"/>
<!-- App.tsx -->
<g id="node1" class="node">
<title>App.tsx</title>
<path fill="none" stroke="#c6c5fe" d="M55.33,-84C55.33,-84 7.67,-84 7.67,-84 3.83,-84 0,-80.17 0,-76.33 0,-76.33 0,-68.67 0,-68.67 0,-64.83 3.83,-61 7.67,-61 7.67,-61 55.33,-61 55.33,-61 59.17,-61 63,-64.83 63,-68.67 63,-68.67 63,-76.33 63,-76.33 63,-80.17 59.17,-84 55.33,-84"/>
<text text-anchor="middle" x="31.5" y="-68.8" font-family="Arial" font-size="14.00" fill="#c6c5fe">App.tsx</text>
</g>
<!-- components/CardContainer.tsx -->
<g id="node2" class="node">
<title>components/CardContainer.tsx</title>
<path fill="none" stroke="#c6c5fe" d="M300.33,-84C300.33,-84 106.67,-84 106.67,-84 102.83,-84 99,-80.17 99,-76.33 99,-76.33 99,-68.67 99,-68.67 99,-64.83 102.83,-61 106.67,-61 106.67,-61 300.33,-61 300.33,-61 304.17,-61 308,-64.83 308,-68.67 308,-68.67 308,-76.33 308,-76.33 308,-80.17 304.17,-84 300.33,-84"/>
<text text-anchor="middle" x="203.5" y="-68.8" font-family="Arial" font-size="14.00" fill="#c6c5fe">components/CardContainer.tsx</text>
</g>
<!-- App.tsx&#45;&gt;components/CardContainer.tsx -->
<g id="edge1" class="edge">
<title>App.tsx&#45;&gt;components/CardContainer.tsx</title>
<path fill="none" stroke="#757575" d="M63.29,-72.5C70.94,-72.5 79.61,-72.5 88.78,-72.5"/>
<polygon fill="#757575" stroke="#757575" points="88.91,-76 98.91,-72.5 88.91,-69 88.91,-76"/>
</g>
<!-- components/Card.tsx -->
<g id="node3" class="node">
<title>components/Card.tsx</title>
<path fill="none" stroke="#c6c5fe" d="M507.83,-144C507.83,-144 374.17,-144 374.17,-144 370.33,-144 366.5,-140.17 366.5,-136.33 366.5,-136.33 366.5,-128.67 366.5,-128.67 366.5,-124.83 370.33,-121 374.17,-121 374.17,-121 507.83,-121 507.83,-121 511.67,-121 515.5,-124.83 515.5,-128.67 515.5,-128.67 515.5,-136.33 515.5,-136.33 515.5,-140.17 511.67,-144 507.83,-144"/>
<text text-anchor="middle" x="441" y="-128.8" font-family="Arial" font-size="14.00" fill="#c6c5fe">components/Card.tsx</text>
</g>
<!-- components/CardContainer.tsx&#45;&gt;components/Card.tsx -->
<g id="edge3" class="edge">
<title>components/CardContainer.tsx&#45;&gt;components/Card.tsx</title>
<path fill="none" stroke="#757575" d="M249.91,-84.07C288.43,-93.88 343.83,-108 384.89,-118.46"/>
<polygon fill="#757575" stroke="#757575" points="384.18,-121.89 394.73,-120.97 385.91,-115.11 384.18,-121.89"/>
</g>
<!-- types/model.d.ts -->
<g id="node4" class="node">
<title>types/model.d.ts</title>
<path fill="none" stroke="#cfffac" d="M712.33,-105C712.33,-105 609.67,-105 609.67,-105 605.83,-105 602,-101.17 602,-97.33 602,-97.33 602,-89.67 602,-89.67 602,-85.83 605.83,-82 609.67,-82 609.67,-82 712.33,-82 712.33,-82 716.17,-82 720,-85.83 720,-89.67 720,-89.67 720,-97.33 720,-97.33 720,-101.17 716.17,-105 712.33,-105"/>
<text text-anchor="middle" x="661" y="-89.8" font-family="Arial" font-size="14.00" fill="#cfffac">types/model.d.ts</text>
</g>
<!-- components/CardContainer.tsx&#45;&gt;types/model.d.ts -->
<g id="edge6" class="edge">
<title>components/CardContainer.tsx&#45;&gt;types/model.d.ts</title>
<path fill="none" stroke="#757575" d="M308.14,-77.28C395.02,-81.28 516.59,-86.89 591.71,-90.35"/>
<polygon fill="#757575" stroke="#757575" points="591.84,-93.86 601.99,-90.83 592.16,-86.87 591.84,-93.86"/>
</g>
<!-- components/CardFactory.tsx -->
<g id="node5" class="node">
<title>components/CardFactory.tsx</title>
<path fill="none" stroke="#c6c5fe" d="M530.33,-64C530.33,-64 351.67,-64 351.67,-64 347.83,-64 344,-60.17 344,-56.33 344,-56.33 344,-48.67 344,-48.67 344,-44.83 347.83,-41 351.67,-41 351.67,-41 530.33,-41 530.33,-41 534.17,-41 538,-44.83 538,-48.67 538,-48.67 538,-56.33 538,-56.33 538,-60.17 534.17,-64 530.33,-64"/>
<text text-anchor="middle" x="441" y="-48.8" font-family="Arial" font-size="14.00" fill="#c6c5fe">components/CardFactory.tsx</text>
</g>
<!-- components/CardContainer.tsx&#45;&gt;components/CardFactory.tsx -->
<g id="edge4" class="edge">
<title>components/CardContainer.tsx&#45;&gt;components/CardFactory.tsx</title>
<path fill="none" stroke="#757575" d="M308.14,-63.7C316.65,-62.98 325.27,-62.24 333.8,-61.52"/>
<polygon fill="#757575" stroke="#757575" points="334.1,-65.01 343.77,-60.67 333.51,-58.03 334.1,-65.01"/>
</g>
<!-- firebase.ts -->
<g id="node6" class="node">
<title>firebase.ts</title>
<path fill="none" stroke="#cfffac" d="M473.83,-23C473.83,-23 408.17,-23 408.17,-23 404.33,-23 400.5,-19.17 400.5,-15.33 400.5,-15.33 400.5,-7.67 400.5,-7.67 400.5,-3.83 404.33,0 408.17,0 408.17,0 473.83,0 473.83,0 477.67,0 481.5,-3.83 481.5,-7.67 481.5,-7.67 481.5,-15.33 481.5,-15.33 481.5,-19.17 477.67,-23 473.83,-23"/>
<text text-anchor="middle" x="441" y="-7.8" font-family="Arial" font-size="14.00" fill="#cfffac">firebase.ts</text>
</g>
<!-- components/CardContainer.tsx&#45;&gt;firebase.ts -->
<g id="edge5" class="edge">
<title>components/CardContainer.tsx&#45;&gt;firebase.ts</title>
<path fill="none" stroke="#757575" d="M240.7,-60.99C268.73,-52.29 308.62,-40.37 344,-31.5 358.89,-27.77 375.21,-24.18 390.09,-21.1"/>
<polygon fill="#757575" stroke="#757575" points="391.04,-24.48 400.14,-19.06 389.64,-17.62 391.04,-24.48"/>
</g>
<!-- components/Card.tsx&#45;&gt;types/model.d.ts -->
<g id="edge2" class="edge">
<title>components/Card.tsx&#45;&gt;types/model.d.ts</title>
<path fill="none" stroke="#757575" d="M506.52,-120.96C533.47,-116.14 564.8,-110.53 592.1,-105.65"/>
<polygon fill="#757575" stroke="#757575" points="592.73,-109.09 601.96,-103.88 591.5,-102.2 592.73,-109.09"/>
</g>
<!-- components/CardFactory.tsx&#45;&gt;types/model.d.ts -->
<g id="edge7" class="edge">
<title>components/CardFactory.tsx&#45;&gt;types/model.d.ts</title>
<path fill="none" stroke="#757575" d="M503.31,-64.03C530.91,-69.22 563.59,-75.37 591.94,-80.7"/>
<polygon fill="#757575" stroke="#757575" points="591.3,-84.14 601.78,-82.55 592.6,-77.26 591.3,-84.14"/>
</g>
<!-- utils/parseContentType.ts -->
<g id="node7" class="node">
<title>utils/parseContentType.ts</title>
<path fill="none" stroke="#cfffac" d="M740.33,-64C740.33,-64 581.67,-64 581.67,-64 577.83,-64 574,-60.17 574,-56.33 574,-56.33 574,-48.67 574,-48.67 574,-44.83 577.83,-41 581.67,-41 581.67,-41 740.33,-41 740.33,-41 744.17,-41 748,-44.83 748,-48.67 748,-48.67 748,-56.33 748,-56.33 748,-60.17 744.17,-64 740.33,-64"/>
<text text-anchor="middle" x="661" y="-48.8" font-family="Arial" font-size="14.00" fill="#cfffac">utils/parseContentType.ts</text>
</g>
<!-- components/CardFactory.tsx&#45;&gt;utils/parseContentType.ts -->
<g id="edge8" class="edge">
<title>components/CardFactory.tsx&#45;&gt;utils/parseContentType.ts</title>
<path fill="none" stroke="#757575" d="M538.25,-52.5C546.69,-52.5 555.22,-52.5 563.66,-52.5"/>
<polygon fill="#757575" stroke="#757575" points="563.88,-56 573.88,-52.5 563.88,-49 563.88,-56"/>
</g>
</g>
</svg>
